<?xml version="1.0" encoding="UTF-8" standalone="no"?>
<!DOCTYPE svg PUBLIC "-//W3C//DTD SVG 1.1//EN" "http://www.w3.org/Graphics/SVG/1.1/DTD/svg11.dtd">
<svg width="100%" height="100%" viewBox="0 0 48 24" version="1.1" xmlns="http://www.w3.org/2000/svg" xmlns:xlink="http://www.w3.org/1999/xlink" xml:space="preserve" xmlns:serif="http://www.serif.com/" style="fill-rule:evenodd;clip-rule:evenodd;stroke-linejoin:round;stroke-miterlimit:2;">
    <path d="M6.857,0L0,0L0,24L6.857,24L6.857,16L10.286,24L17.142,24L6.857,0Z"/>
    <path d="M20.571,24L27.428,24L27.428,0L20.571,0L20.571,8L17.142,0L10.285,0L20.571,24Z"/>
    <path d="M37.712,24L30.855,24L37.712,24ZM37.712,0L30.855,16L30.855,0L37.712,0Z"/>
    <path d="M41.143,0L30.858,24L37.715,24L39.429,20L41.143,24L48,24L42.857,12L48,0L41.143,0Z"/>
</svg>
